<svg preserveAspectRatio="none" overflow="visible" style="display: block;" width="64" height="64" viewBox="0 0 64 64" fill="none" xmlns="http://www.w3.org/2000/svg">
<g id="spark" filter="url(#filter0_ii_0_4)">
<path d="M31.9996 0C33.8528 0 35.3555 1.5027 35.3555 3.35582V10.8126C35.3555 20.6609 43.3391 28.6445 53.1874 28.6445H60.6442C62.4973 28.6445 64 30.1472 64 32.0004C64 33.8534 62.4973 35.3555 60.6442 35.3555H53.1874C43.3391 35.3555 35.3555 43.3391 35.3555 53.1874V60.6449C35.3554 62.498 33.8527 64 31.9996 64C30.1467 63.9999 28.6446 62.4979 28.6445 60.6449V53.1874C28.6445 43.3391 20.6609 35.3555 10.8126 35.3555H3.35509C1.50213 35.3553 4.91043e-05 33.8533 0 32.0004C8.09984e-08 30.1473 1.5021 28.6447 3.35509 28.6445H10.8126C20.6609 28.6445 28.6445 20.6609 28.6445 10.8126V3.35582C28.6445 1.50279 30.1466 0.000148366 31.9996 0Z" fill="white" fill-opacity="0.04"/>
</g>
<defs>
<filter id="filter0_ii_0_4" x="0" y="0" width="64" height="64" filterUnits="userSpaceOnUse" color-interpolation-filters="sRGB">
<feFlood flood-opacity="0" result="BackgroundImageFix"/>
<feBlend mode="normal" in="SourceGraphic" in2="BackgroundImageFix" result="shape"/>
<feColorMatrix in="SourceAlpha" type="matrix" values="0 0 0 0 0 0 0 0 0 0 0 0 0 0 0 0 0 0 127 0" result="hardAlpha"/>
<feOffset dy="1"/>
<feComposite in2="hardAlpha" operator="arithmetic" k2="-1" k3="1"/>
<feColorMatrix type="matrix" values="0 0 0 0 0 0 0 0 0 0 0 0 0 0 0 0 0 0 0.2 0"/>
<feBlend mode="normal" in2="shape" result="effect1_innerShadow_0_4"/>
<feColorMatrix in="SourceAlpha" type="matrix" values="0 0 0 0 0 0 0 0 0 0 0 0 0 0 0 0 0 0 127 0" result="hardAlpha"/>
<feOffset dy="-1"/>
<feComposite in2="hardAlpha" operator="arithmetic" k2="-1" k3="1"/>
<feColorMatrix type="matrix" values="0 0 0 0 1 0 0 0 0 1 0 0 0 0 1 0 0 0 0.08 0"/>
<feBlend mode="normal" in2="effect1_innerShadow_0_4" result="effect2_innerShadow_0_4"/>
</filter>
</defs>
</svg>
