<svg width="20" height="20" viewBox="0 0 20 20" fill="none" xmlns="http://www.w3.org/2000/svg">
<path d="M8.36419 0.840167C7.01047 0.501726 5.92688 0.230816 5.0618 0.0969075C4.1891 -0.0381818 3.38234 -0.0628027 2.64579 0.225631C1.53705 0.65982 0.65982 1.53705 0.225631 2.64579C-0.0628027 3.38234 -0.0381818 4.1891 0.0969075 5.0618C0.230816 5.92688 0.501723 7.01047 0.840165 8.36418L2.1944 13.7811C2.48738 14.953 2.71429 15.8607 2.90953 16.5344C3.09562 17.1766 3.28862 17.7442 3.5556 18.1355C5.17596 20.5107 8.63261 20.6393 10.425 18.3912C10.7203 18.0207 10.955 17.469 11.1883 16.8425C11.4331 16.1852 11.7268 15.2969 12.1061 14.1501L12.1134 14.1279C12.26 13.6844 12.3074 13.5473 12.3639 13.4297C12.5875 12.9635 12.9635 12.5875 13.4297 12.3638C13.5473 12.3074 13.6845 12.26 14.1279 12.1134L14.1501 12.1061C15.2968 11.7268 16.1852 11.4331 16.8425 11.1883C17.469 10.955 18.0207 10.7203 18.3911 10.425C20.6393 8.63262 20.5107 5.17595 18.1355 3.55559C17.7441 3.28862 17.1765 3.09562 16.5344 2.90952C15.8607 2.71429 14.953 2.48738 13.7812 2.19441L8.36419 0.840167Z" fill="#FFFFFF"/>
</svg>
